<?xml version="1.0" encoding="UTF-8"?>
<!DOCTYPE svg PUBLIC "-//W3C//DTD SVG 1.1//EN" "http://www.w3.org/Graphics/SVG/1.1/DTD/svg11.dtd">
<svg xmlns="http://www.w3.org/2000/svg" version="1.1" width="1200px" height="800px" style="shape-rendering:geometricPrecision; text-rendering:geometricPrecision; image-rendering:optimizeQuality; fill-rule:evenodd; clip-rule:evenodd" xmlns:xlink="http://www.w3.org/1999/xlink">
<g><path style="opacity:0.979" fill="#e15e18" d="M 224.5,68.5 C 224.5,106.833 224.5,145.167 224.5,183.5C 223.189,186.135 221.522,188.469 219.5,190.5C 219.832,156.663 219.498,122.996 218.5,89.5C 219.845,80.1498 220.512,70.8164 220.5,61.5C 222.616,63.3999 223.949,65.7332 224.5,68.5 Z"/></g>
<g><path style="opacity:0.978" fill="#df531c" d="M 224.5,68.5 C 229.261,75.6864 233.261,83.3531 236.5,91.5C 235.167,114.833 235.167,138.167 236.5,161.5C 233.007,169.157 229.007,176.49 224.5,183.5C 224.5,145.167 224.5,106.833 224.5,68.5 Z"/></g>
<g><path style="opacity:0.957" fill="#e26715" d="M 218.5,89.5 C 219.498,122.996 219.832,156.663 219.5,190.5C 218.876,192.754 217.543,194.421 215.5,195.5C 214.502,166.005 214.169,136.338 214.5,106.5C 215.675,100.799 217.008,95.1326 218.5,89.5 Z"/></g>
<g><path style="opacity:0.922" fill="#dd4620" d="M 236.5,91.5 C 245.833,114.839 245.833,138.172 236.5,161.5C 235.167,138.167 235.167,114.833 236.5,91.5 Z"/></g>
<g><path style="opacity:0.97" fill="#e37112" d="M 214.5,106.5 C 214.169,136.338 214.502,166.005 215.5,195.5C 213.206,199.127 210.54,202.461 207.5,205.5C 206.509,178.908 206.176,152.241 206.5,125.5C 209.488,119.204 212.155,112.871 214.5,106.5 Z"/></g>
<g><path style="opacity:0.944" fill="#db3027" d="M 262.5,256.5 C 262.832,224.996 262.498,193.662 261.5,162.5C 265.018,150.529 266.018,138.362 264.5,126C 264.85,124.743 265.517,124.409 266.5,125C 297.046,170.016 295.713,213.85 262.5,256.5 Z"/></g>
<g><path style="opacity:0.973" fill="#e47d0d" d="M 206.5,125.5 C 206.176,152.241 206.509,178.908 207.5,205.5C 204.5,209.167 201.167,212.5 197.5,215.5C 197.831,190.661 197.498,165.994 196.5,141.5C 199.847,136.131 203.181,130.797 206.5,125.5 Z"/></g>
<g><path style="opacity:0.972" fill="#e68a09" d="M 196.5,141.5 C 197.498,165.994 197.831,190.661 197.5,215.5C 195.167,219.167 192.167,222.167 188.5,224.5C 188.831,200.661 188.498,176.994 187.5,153.5C 190.531,149.476 193.531,145.476 196.5,141.5 Z"/></g>
<g><path style="opacity:0.98" fill="#e89605" d="M 187.5,153.5 C 188.498,176.994 188.831,200.661 188.5,224.5C 185.064,228.057 181.397,231.391 177.5,234.5C 177.5,211.167 177.5,187.833 177.5,164.5C 180.862,160.808 184.195,157.141 187.5,153.5 Z"/></g>
<g><path style="opacity:0.975" fill="#e9a201" d="M 177.5,164.5 C 177.5,187.833 177.5,211.167 177.5,234.5C 168.858,241.47 160.191,248.47 151.5,255.5C 150.503,233.006 150.169,210.339 150.5,187.5C 159.769,180.238 168.769,172.571 177.5,164.5 Z"/></g>
<g><path style="opacity:0.959" fill="#dc3f23" d="M 261.5,162.5 C 262.498,193.662 262.832,224.996 262.5,256.5C 260.183,260.146 257.516,263.48 254.5,266.5C 254.831,239.328 254.498,212.328 253.5,185.5C 256.167,177.833 258.833,170.167 261.5,162.5 Z"/></g>
<g><path style="opacity:0.977" fill="#e79705" d="M 150.5,187.5 C 150.169,210.339 150.503,233.006 151.5,255.5C 147.485,259.513 143.152,263.179 138.5,266.5C 138.5,243.5 138.5,220.5 138.5,197.5C 142.183,193.82 146.183,190.486 150.5,187.5 Z"/></g>
<g><path style="opacity:0.973" fill="#de4b1e" d="M 253.5,185.5 C 254.498,212.328 254.831,239.328 254.5,266.5C 252.167,269.5 249.5,272.167 246.5,274.5C 246.5,248.833 246.5,223.167 246.5,197.5C 248.837,193.492 251.17,189.492 253.5,185.5 Z"/></g>
<g><path style="opacity:0.976" fill="#000000" d="M 786.5,191.5 C 834.663,186.273 874.663,201.607 906.5,237.5C 890.796,252.705 874.629,267.372 858,281.5C 838.648,262.383 815.481,254.883 788.5,259C 774.573,263.193 770.406,272.026 776,285.5C 782.516,291.343 790.016,295.51 798.5,298C 824.588,303.14 849.588,311.474 873.5,323C 900.454,339.064 913.788,362.897 913.5,394.5C 912.454,428.344 897.454,453.844 868.5,471C 825.852,490.963 782.852,491.629 739.5,473C 722.241,464.036 707.241,452.203 694.5,437.5C 710.835,421.998 727.335,406.665 744,391.5C 766.773,417.275 794.94,425.442 828.5,416C 839.253,411.071 843.087,402.905 840,391.5C 834.438,384.634 827.271,380.134 818.5,378C 800.794,373.157 783.127,368.157 765.5,363C 745.102,356.564 728.269,345.064 715,328.5C 695.111,294.407 695.777,260.741 717,227.5C 735.378,206.394 758.544,194.394 786.5,191.5 Z"/></g>
<g><path style="opacity:0.976" fill="#000000" d="M 1016.5,191.5 C 1064.67,186.278 1104.67,201.612 1136.5,237.5C 1120.4,252.391 1104.06,267.058 1087.5,281.5C 1068.36,262.288 1045.36,254.788 1018.5,259C 1006.48,261.873 1001.65,269.373 1004,281.5C 1005.4,284.902 1007.57,287.736 1010.5,290C 1027.38,298.072 1045.05,303.739 1063.5,307C 1083.15,312.493 1101.15,321.16 1117.5,333C 1124.81,339.972 1130.98,347.805 1136,356.5C 1141.95,372.057 1144.45,387.724 1143.5,403.5C 1136.15,443.684 1112.82,469.518 1073.5,481C 1027.1,493.158 984.434,485.491 945.5,458C 938.016,451.683 931.016,444.85 924.5,437.5C 940.835,421.998 957.335,406.665 974,391.5C 996.765,417.274 1024.93,425.44 1058.5,416C 1070.65,409.886 1073.81,400.719 1068,388.5C 1062.31,383.572 1055.81,380.072 1048.5,378C 1030.79,373.157 1013.13,368.157 995.5,363C 940.333,342.835 920.5,304.335 936,247.5C 948.12,220.394 968.62,202.894 997.5,195C 1004.03,194.126 1010.36,192.959 1016.5,191.5 Z"/></g>
<g><path style="opacity:0.981" fill="#000000" d="M 474.5,196.5 C 517.197,196.039 559.863,196.539 602.5,198C 633.583,202.777 655.75,219.277 669,247.5C 680.279,283.66 670.779,312.827 640.5,335C 676.999,354.835 690.499,385.001 681,425.5C 674.179,448.323 659.679,464.157 637.5,473C 627.72,476.278 617.72,478.612 607.5,480C 583.688,481.106 559.855,481.606 536,481.5C 515.595,481.497 495.262,481.164 475,480.5C 474.5,385.834 474.333,291.167 474.5,196.5 Z M 546.5,256.5 C 557.505,256.333 568.505,256.5 579.5,257C 593.332,259.332 600.665,267.499 601.5,281.5C 600.843,296.989 592.843,305.489 577.5,307C 567.172,307.5 556.839,307.666 546.5,307.5C 546.5,290.5 546.5,273.5 546.5,256.5 Z M 546.5,367.5 C 559.837,367.333 573.171,367.5 586.5,368C 605.742,370.962 613.908,382.128 611,401.5C 607.866,412.297 600.7,418.464 589.5,420C 575.171,420.5 560.837,420.667 546.5,420.5C 546.5,402.833 546.5,385.167 546.5,367.5 Z"/></g>
<g><path style="opacity:0.981" fill="#e6880a" d="M 138.5,197.5 C 138.5,220.5 138.5,243.5 138.5,266.5C 135.319,268.592 132.319,270.925 129.5,273.5C 128.511,250.908 128.178,228.242 128.5,205.5C 131.52,202.484 134.854,199.817 138.5,197.5 Z"/></g>
<g><path style="opacity:0.987" fill="#e0581a" d="M 246.5,197.5 C 246.5,223.167 246.5,248.833 246.5,274.5C 245.581,277.089 243.914,279.089 241.5,280.5C 240.395,281.6 239.062,282.267 237.5,282.5C 237.5,258.5 237.5,234.5 237.5,210.5C 240.759,206.304 243.759,201.97 246.5,197.5 Z"/></g>
<g><path style="opacity:0.969" fill="#e57f0d" d="M 128.5,205.5 C 128.178,228.242 128.511,250.908 129.5,273.5C 128.167,275.5 126.5,277.167 124.5,278.5C 123.511,255.575 123.178,232.575 123.5,209.5C 124.945,207.937 126.611,206.604 128.5,205.5 Z"/></g>
<g><path style="opacity:0.98" fill="#e37510" d="M 123.5,209.5 C 123.178,232.575 123.511,255.575 124.5,278.5C 121.859,280.804 119.192,283.138 116.5,285.5C 115.502,262.673 115.169,239.673 115.5,216.5C 117.549,213.45 120.216,211.117 123.5,209.5 Z"/></g>
<g><path style="opacity:0.981" fill="#e16516" d="M 237.5,210.5 C 237.5,234.5 237.5,258.5 237.5,282.5C 235.833,284.833 233.833,286.833 231.5,288.5C 230.843,265.735 230.177,243.069 229.5,220.5C 231.794,216.873 234.46,213.539 237.5,210.5 Z"/></g>
<g><path style="opacity:0.973" fill="#e26815" d="M 115.5,216.5 C 115.169,239.673 115.502,262.673 116.5,285.5C 114.212,289.456 111.212,292.789 107.5,295.5C 107.5,271.5 107.5,247.5 107.5,223.5C 109.751,220.705 112.418,218.372 115.5,216.5 Z"/></g>
<g><path style="opacity:0.983" fill="#e37112" d="M 229.5,220.5 C 230.177,243.069 230.843,265.735 231.5,288.5C 229.105,291.861 226.105,294.528 222.5,296.5C 221.843,274.069 221.177,251.735 220.5,229.5C 223.167,226.167 226.167,223.167 229.5,220.5 Z"/></g>
<g><path style="opacity:0.97" fill="#e05c19" d="M 107.5,223.5 C 107.5,247.5 107.5,271.5 107.5,295.5C 105.526,298.482 103.526,301.482 101.5,304.5C 100.502,280.006 100.169,255.339 100.5,230.5C 102.5,227.833 104.833,225.5 107.5,223.5 Z"/></g>
<g><path style="opacity:0.99" fill="#e47d0e" d="M 220.5,229.5 C 221.177,251.735 221.843,274.069 222.5,296.5C 219.859,298.804 217.192,301.138 214.5,303.5C 213.511,280.908 213.178,258.242 213.5,235.5C 215.833,233.5 218.167,231.5 220.5,229.5 Z"/></g>
<g><path style="opacity:0.972" fill="#df501d" d="M 100.5,230.5 C 100.169,255.339 100.502,280.006 101.5,304.5C 98.8015,308.19 96.1348,311.857 93.5,315.5C 93.8311,289.661 93.4978,263.995 92.5,238.5C 94.8333,235.5 97.5,232.833 100.5,230.5 Z"/></g>
<g><path style="opacity:0.965" fill="#dd4321" d="M 92.5,238.5 C 93.4978,263.995 93.8311,289.661 93.5,315.5C 91.7712,319.958 89.7712,324.291 87.5,328.5C 86.5021,301.005 86.1687,273.338 86.5,245.5C 87.7997,242.568 89.7997,240.234 92.5,238.5 Z"/></g>
<g><path style="opacity:0.986" fill="#e68a09" d="M 213.5,235.5 C 213.178,258.242 213.511,280.908 214.5,303.5C 210.163,306.174 206.496,309.507 203.5,313.5C 202.833,313.833 202.167,314.167 201.5,314.5C 201.312,312.897 201.812,311.563 203,310.5C 203.5,288.503 203.667,266.503 203.5,244.5C 206.808,241.529 210.141,238.529 213.5,235.5 Z"/></g>
<g><path style="opacity:0.972" fill="#e89605" d="M 203.5,244.5 C 203.667,266.503 203.5,288.503 203,310.5C 201.812,311.563 201.312,312.897 201.5,314.5C 198.48,317.516 195.146,320.183 191.5,322.5C 192.479,299.545 192.813,276.545 192.5,253.5C 195.851,250.152 199.518,247.152 203.5,244.5 Z"/></g>
<g><path style="opacity:0.93" fill="#db3127" d="M 86.5,245.5 C 86.1687,273.338 86.5021,301.005 87.5,328.5C 79.3566,346.658 75.69,365.658 76.5,385.5C 59.4522,362.715 51.6189,337.048 53,308.5C 58.41,284.342 69.5767,263.342 86.5,245.5 Z"/></g>
<g><path style="opacity:0.984" fill="#e9a201" d="M 192.5,253.5 C 192.813,276.545 192.479,299.545 191.5,322.5C 188.48,325.516 185.146,328.183 181.5,330.5C 177.208,333.457 173.208,336.79 169.5,340.5C 169.44,339.957 169.107,339.624 168.5,339.5C 167.5,340.167 166.5,340.833 165.5,341.5C 164.5,319.844 164.167,298.177 164.5,276.5C 173.246,268.084 182.579,260.418 192.5,253.5 Z"/></g>
<g><path style="opacity:0.988" fill="#e79804" d="M 164.5,276.5 C 164.167,298.177 164.5,319.844 165.5,341.5C 166.5,340.833 167.5,340.167 168.5,339.5C 169.107,339.624 169.44,339.957 169.5,340.5C 165.597,343.947 161.93,347.614 158.5,351.5C 158.473,328.413 158.473,305.08 158.5,281.5C 159.911,279.086 161.911,277.419 164.5,276.5 Z"/></g>
<g><path style="opacity:0.984" fill="#92180e" d="M 241.5,280.5 C 241.5,281.167 241.5,281.833 241.5,282.5C 232.92,296.653 223.587,310.32 213.5,323.5C 209.806,320.473 206.473,317.14 203.5,313.5C 206.496,309.507 210.163,306.174 214.5,303.5C 217.192,301.138 219.859,298.804 222.5,296.5C 226.105,294.528 229.105,291.861 231.5,288.5C 233.833,286.833 235.833,284.833 237.5,282.5C 239.062,282.267 240.395,281.6 241.5,280.5 Z"/></g>
<g><path style="opacity:0.985" fill="#e68d08" d="M 158.5,281.5 C 158.473,305.08 158.473,328.413 158.5,351.5C 155.502,354.667 152.669,358 150,361.5C 149.517,362.448 149.351,363.448 149.5,364.5C 148.833,364.833 148.167,365.167 147.5,365.5C 148.462,340.526 148.795,315.526 148.5,290.5C 151.231,286.766 154.564,283.766 158.5,281.5 Z"/></g>
<g><path style="opacity:0.968" fill="#b8241b" d="M 245.5,285.5 C 248.207,287.843 250.874,290.177 253.5,292.5C 244.167,306.833 234.833,321.167 225.5,335.5C 222.5,333.167 219.833,330.5 217.5,327.5C 226.65,313.396 235.983,299.396 245.5,285.5 Z"/></g>
<g><path style="opacity:0.973" fill="#e5810c" d="M 148.5,290.5 C 148.795,315.526 148.462,340.526 147.5,365.5C 144.833,369.833 142.167,374.167 139.5,378.5C 138.502,352.672 138.169,326.672 138.5,300.5C 141.5,296.833 144.833,293.5 148.5,290.5 Z"/></g>
<g><path style="opacity:0.976" fill="#ce2b23" d="M 253.5,292.5 C 256.792,294.458 259.792,296.791 262.5,299.5C 259.58,307.162 255.246,313.995 249.5,320C 245.006,327.423 240.006,334.923 234.5,342.5C 231.214,340.549 228.214,338.215 225.5,335.5C 234.833,321.167 244.167,306.833 253.5,292.5 Z"/></g>
<g><path style="opacity:0.97" fill="#a11c13" d="M 241.5,282.5 C 243.404,282.738 244.738,283.738 245.5,285.5C 235.983,299.396 226.65,313.396 217.5,327.5C 215.833,326.5 214.5,325.167 213.5,323.5C 223.587,310.32 232.92,296.653 241.5,282.5 Z"/></g>
<g><path style="opacity:0.982" fill="#e37510" d="M 138.5,300.5 C 138.169,326.672 138.502,352.672 139.5,378.5C 137.308,381.55 135.642,384.883 134.5,388.5C 133.167,389.167 132.167,390.167 131.5,391.5C 130.502,364.338 130.169,337.005 130.5,309.5C 132.453,305.88 135.119,302.88 138.5,300.5 Z"/></g>
<g><path style="opacity:0.974" fill="#da2f27" d="M 262.5,299.5 C 273.053,307.269 283.386,315.269 293.5,323.5C 284.071,338.034 274.405,352.367 264.5,366.5C 256.196,360.342 247.863,354.176 239.5,348C 237.627,346.296 235.96,344.463 234.5,342.5C 240.006,334.923 245.006,327.423 249.5,320C 255.246,313.995 259.58,307.162 262.5,299.5 Z"/></g>
<g><path style="opacity:0.988" fill="#e26815" d="M 130.5,309.5 C 130.169,337.005 130.502,364.338 131.5,391.5C 128.008,398.979 125.342,406.645 123.5,414.5C 122.502,383.004 122.168,351.338 122.5,319.5C 124.817,315.854 127.484,312.52 130.5,309.5 Z"/></g>
<g><path style="opacity:0.986" fill="#e05c19" d="M 122.5,319.5 C 122.168,351.338 122.502,383.004 123.5,414.5C 122.979,418.481 122.646,422.481 122.5,426.5C 121.511,431.975 121.178,437.642 121.5,443.5C 121.5,445.167 121.5,446.833 121.5,448.5C 119,445.506 117,442.173 115.5,438.5C 115.5,402.5 115.5,366.5 115.5,330.5C 117.087,326.317 119.421,322.65 122.5,319.5 Z"/></g>
<g><path style="opacity:0.979" fill="#c42820" d="M 293.5,323.5 C 297.457,326.122 301.124,329.122 304.5,332.5C 295.586,347.323 285.92,361.656 275.5,375.5C 271.518,372.848 267.851,369.848 264.5,366.5C 274.405,352.367 284.071,338.034 293.5,323.5 Z"/></g>
<g><path style="opacity:0.953" fill="#df4f1d" d="M 115.5,330.5 C 115.5,366.5 115.5,402.5 115.5,438.5C 112.073,433.984 109.407,428.984 107.5,423.5C 107.831,397.328 107.498,371.328 106.5,345.5C 108.76,339.967 111.76,334.967 115.5,330.5 Z"/></g>
<g><path style="opacity:0.958" fill="#991a10" d="M 183.5,333.5 C 186.55,335.549 188.883,338.216 190.5,341.5C 179.13,352.536 168.464,364.202 158.5,376.5C 155.815,373.81 153.482,370.81 151.5,367.5C 162.602,356.674 173.269,345.34 183.5,333.5 Z"/></g>
<g><path style="opacity:0.976" fill="#ab2017" d="M 304.5,332.5 C 307.833,335.5 311.167,338.5 314.5,341.5C 305.167,355.5 295.833,369.5 286.5,383.5C 282.648,381.075 278.981,378.409 275.5,375.5C 285.92,361.656 295.586,347.323 304.5,332.5 Z"/></g>
<g><path style="opacity:0.966" fill="#9b1a11" d="M 314.5,341.5 C 316.449,343.297 318.116,345.297 319.5,347.5C 318.883,347.389 318.383,347.056 318,346.5C 317.529,349.471 316.362,352.138 314.5,354.5C 305.999,365.322 298.333,376.656 291.5,388.5C 289.5,387.167 287.833,385.5 286.5,383.5C 295.833,369.5 305.167,355.5 314.5,341.5 Z"/></g>
<g><path style="opacity:1" fill="#811308" d="M 181.5,330.5 C 182.167,331.5 182.833,332.5 183.5,333.5C 173.269,345.34 162.602,356.674 151.5,367.5C 150.599,366.71 149.932,365.71 149.5,364.5C 149.351,363.448 149.517,362.448 150,361.5C 152.669,358 155.502,354.667 158.5,351.5C 161.93,347.614 165.597,343.947 169.5,340.5C 173.208,336.79 177.208,333.457 181.5,330.5 Z"/></g>
<g><path style="opacity:0.976" fill="#b22219" d="M 190.5,341.5 C 193.192,343.862 195.859,346.196 198.5,348.5C 197.223,350.95 195.723,353.283 194,355.5C 184.352,364.981 174.852,374.648 165.5,384.5C 162.45,382.451 160.117,379.784 158.5,376.5C 168.464,364.202 179.13,352.536 190.5,341.5 Z"/></g>
<g><path style="opacity:0.894" fill="#dd4221" d="M 106.5,345.5 C 107.498,371.328 107.831,397.328 107.5,423.5C 95.9243,397.738 95.5909,371.738 106.5,345.5 Z"/></g>
<g><path style="opacity:0.983" fill="#c4373b" d="M 321.5,349.5 C 323.56,352.24 325.226,355.24 326.5,358.5C 326.5,393.5 326.5,428.5 326.5,463.5C 325.649,465.882 324.316,467.882 322.5,469.5C 321.501,429.67 321.168,389.67 321.5,349.5 Z"/></g>
<g><path style="opacity:0.97" fill="#c72921" d="M 198.5,348.5 C 201.526,351.195 204.526,353.862 207.5,356.5C 200.843,363.347 194.01,370.681 187,378.5C 186.667,379.5 186.333,380.5 186,381.5C 180.903,384.761 177.07,389.094 174.5,394.5C 170.788,391.789 167.788,388.456 165.5,384.5C 174.852,374.648 184.352,364.981 194,355.5C 195.723,353.283 197.223,350.95 198.5,348.5 Z"/></g>
<g><path style="opacity:1" fill="#88140b" d="M 319.5,347.5 C 319.892,357.06 319.225,366.393 317.5,375.5C 317.631,374.761 317.464,374.094 317,373.5C 316.399,376.637 315.399,379.637 314,382.5C 309.916,387.735 306.083,393.069 302.5,398.5C 298.808,395.138 295.141,391.805 291.5,388.5C 298.333,376.656 305.999,365.322 314.5,354.5C 316.362,352.138 317.529,349.471 318,346.5C 318.383,347.056 318.883,347.389 319.5,347.5 Z"/></g>
<g><path style="opacity:0.965" fill="#cb3535" d="M 326.5,358.5 C 328.653,360.794 330.32,363.46 331.5,366.5C 330.167,396.167 330.167,425.833 331.5,455.5C 330.32,458.54 328.653,461.206 326.5,463.5C 326.5,428.5 326.5,393.5 326.5,358.5 Z"/></g>
<g><path style="opacity:0.973" fill="#d92f27" d="M 207.5,356.5 C 221.539,367.511 235.539,378.511 249.5,389.5C 249.108,391.179 248.608,392.846 248,394.5C 245,396.833 242,399.167 239,401.5C 237.365,406.131 234.365,409.465 230,411.5C 229.667,412.5 229.333,413.5 229,414.5C 223.571,418.426 219.071,423.093 215.5,428.5C 200.661,418.668 186.994,407.335 174.5,394.5C 177.07,389.094 180.903,384.761 186,381.5C 186.333,380.5 186.667,379.5 187,378.5C 194.01,370.681 200.843,363.347 207.5,356.5 Z"/></g>
<g><path style="opacity:0.949" fill="#d1332f" d="M 331.5,366.5 C 333.108,369.382 334.441,372.382 335.5,375.5C 334.167,399.5 334.167,423.5 335.5,447.5C 334.167,450.167 332.833,452.833 331.5,455.5C 330.167,425.833 330.167,396.167 331.5,366.5 Z"/></g>
<g><path style="opacity:0.901" fill="#d9312a" d="M 335.5,375.5 C 344.833,399.5 344.833,423.5 335.5,447.5C 334.167,423.5 334.167,399.5 335.5,375.5 Z"/></g>
<g><path style="opacity:0.982" fill="#ba3b43" d="M 319.5,347.5 C 320.5,347.833 321.167,348.5 321.5,349.5C 321.168,389.67 321.501,429.67 322.5,469.5C 320.6,473.732 317.933,477.399 314.5,480.5C 314.831,451.329 314.498,422.329 313.5,393.5C 315.725,387.708 317.059,381.708 317.5,375.5C 319.225,366.393 319.892,357.06 319.5,347.5 Z"/></g>
<g><path style="opacity:0.943" fill="#700d04" d="M 317.5,375.5 C 317.059,381.708 315.725,387.708 313.5,393.5C 311.833,397.5 310.167,401.5 308.5,405.5C 308.167,405.5 307.833,405.5 307.5,405.5C 305.42,403.427 303.754,401.093 302.5,398.5C 306.083,393.069 309.916,387.735 314,382.5C 315.399,379.637 316.399,376.637 317,373.5C 317.464,374.094 317.631,374.761 317.5,375.5 Z"/></g>
<g><path style="opacity:0.976" fill="#be261e" d="M 249.5,389.5 C 253.817,392.486 257.817,395.82 261.5,399.5C 250.173,412.494 238.84,425.494 227.5,438.5C 223.183,435.514 219.183,432.18 215.5,428.5C 219.071,423.093 223.571,418.426 229,414.5C 229.333,413.5 229.667,412.5 230,411.5C 234.365,409.465 237.365,406.131 239,401.5C 242,399.167 245,396.833 248,394.5C 248.608,392.846 249.108,391.179 249.5,389.5 Z"/></g>
<g><path style="opacity:0.99" fill="#b13e4b" d="M 313.5,393.5 C 314.498,422.329 314.831,451.329 314.5,480.5C 313.92,482.749 312.587,484.415 310.5,485.5C 309.833,458.833 309.167,432.167 308.5,405.5C 310.167,401.5 311.833,397.5 313.5,393.5 Z"/></g>
<g><path style="opacity:0.961" fill="#a51e15" d="M 261.5,399.5 C 265.775,402.142 269.442,405.475 272.5,409.5C 261.28,421.73 249.946,434.063 238.5,446.5C 234.332,444.577 230.665,441.91 227.5,438.5C 238.84,425.494 250.173,412.494 261.5,399.5 Z"/></g>
<g><path style="opacity:0.978" fill="#b22219" d="M 145.5,403.5 C 147.833,405.167 149.833,407.167 151.5,409.5C 143.303,424.561 135.636,439.894 128.5,455.5C 125.833,453.5 123.5,451.167 121.5,448.5C 121.5,446.833 121.5,445.167 121.5,443.5C 122.688,444.684 123.855,444.684 125,443.5C 131.928,430.216 138.761,416.883 145.5,403.5 Z"/></g>
<g><path style="opacity:0.954" fill="#da3028" d="M 345.5,560.5 C 345.831,534.995 345.498,509.661 344.5,484.5C 358.852,461.419 365.518,436.419 364.5,409.5C 395.653,453.516 395.153,497.182 363,540.5C 357.645,547.681 351.812,554.348 345.5,560.5 Z"/></g>
<g><path style="opacity:0.975" fill="#a74154" d="M 307.5,405.5 C 307.833,405.5 308.167,405.5 308.5,405.5C 309.167,432.167 309.833,458.833 310.5,485.5C 308.906,488.764 306.573,491.431 303.5,493.5C 302.198,467.313 302.198,440.98 303.5,414.5C 304.561,411.378 305.895,408.378 307.5,405.5 Z"/></g>
<g><path style="opacity:0.967" fill="#cb2a22" d="M 151.5,409.5 C 154.859,412.529 158.192,415.529 161.5,418.5C 160.115,419.574 158.949,420.907 158,422.5C 151.31,436.553 144.143,450.219 136.5,463.5C 133.5,461.167 130.833,458.5 128.5,455.5C 135.636,439.894 143.303,424.561 151.5,409.5 Z"/></g>
<g><path style="opacity:1" fill="#791006" d="M 134.5,388.5 C 136.242,391.643 138.242,394.643 140.5,397.5C 134.201,407.416 128.368,417.749 123,428.5C 122.536,427.906 122.369,427.239 122.5,426.5C 122.646,422.481 122.979,418.481 123.5,414.5C 125.342,406.645 128.008,398.979 131.5,391.5C 132.167,390.167 133.167,389.167 134.5,388.5 Z"/></g>
<g><path style="opacity:1" fill="#971910" d="M 140.5,397.5 C 142.633,399.091 144.299,401.091 145.5,403.5C 138.761,416.883 131.928,430.216 125,443.5C 123.855,444.684 122.688,444.684 121.5,443.5C 121.178,437.642 121.511,431.975 122.5,426.5C 122.369,427.239 122.536,427.906 123,428.5C 128.368,417.749 134.201,407.416 140.5,397.5 Z"/></g>
<g><path style="opacity:0.975" fill="#da2f27" d="M 161.5,418.5 C 173.786,427.451 185.786,436.785 197.5,446.5C 189.26,461.979 181.26,477.646 173.5,493.5C 160.242,484.696 147.908,474.696 136.5,463.5C 144.143,450.219 151.31,436.553 158,422.5C 158.949,420.907 160.115,419.574 161.5,418.5 Z"/></g>
<g><path style="opacity:1" fill="#8d160d" d="M 272.5,409.5 C 275.833,412.167 278.833,415.167 281.5,418.5C 276.829,425.139 271.662,431.472 266,437.5C 259.909,443.422 254.076,449.422 248.5,455.5C 245.141,452.471 241.808,449.471 238.5,446.5C 249.946,434.063 261.28,421.73 272.5,409.5 Z"/></g>
<g><path style="opacity:0.975" fill="#7b1006" d="M 281.5,418.5 C 283.137,420.475 284.804,422.475 286.5,424.5C 275.513,436.157 264.846,448.157 254.5,460.5C 251.911,459.581 249.911,457.914 248.5,455.5C 254.076,449.422 259.909,443.422 266,437.5C 271.662,431.472 276.829,425.139 281.5,418.5 Z"/></g>
<g><path style="opacity:0.967" fill="#9c465e" d="M 303.5,414.5 C 302.198,440.98 302.198,467.313 303.5,493.5C 300.959,497.252 297.959,500.585 294.5,503.5C 294.831,478.661 294.498,453.994 293.5,429.5C 296.867,424.477 300.2,419.477 303.5,414.5 Z"/></g>
<g><path style="opacity:0.987" fill="#6e0c03" d="M 286.5,424.5 C 288.5,426.5 290.5,428.5 292.5,430.5C 290.577,434.668 287.91,438.335 284.5,441.5C 283.167,443.167 281.833,444.833 280.5,446.5C 278.5,447.833 276.833,449.5 275.5,451.5C 272.474,454.195 269.474,456.862 266.5,459.5C 264.46,461.177 262.46,462.844 260.5,464.5C 259.833,464.5 259.167,464.5 258.5,464.5C 256.833,463.5 255.5,462.167 254.5,460.5C 264.846,448.157 275.513,436.157 286.5,424.5 Z"/></g>
<g><path style="opacity:0.988" fill="#8f4a69" d="M 293.5,429.5 C 294.498,453.994 294.831,478.661 294.5,503.5C 291.833,505.833 289.167,508.167 286.5,510.5C 286.667,487.831 286.5,465.164 286,442.5C 285.617,441.944 285.117,441.611 284.5,441.5C 287.91,438.335 290.577,434.668 292.5,430.5C 293.167,430.5 293.5,430.167 293.5,429.5 Z"/></g>
<g><path style="opacity:0.978" fill="#864d71" d="M 284.5,441.5 C 285.117,441.611 285.617,441.944 286,442.5C 286.5,465.164 286.667,487.831 286.5,510.5C 285.167,512.5 283.5,514.167 281.5,515.5C 281.831,492.327 281.498,469.327 280.5,446.5C 281.833,444.833 283.167,443.167 284.5,441.5 Z"/></g>
<g><path style="opacity:0.99" fill="#7e5077" d="M 280.5,446.5 C 281.498,469.327 281.831,492.327 281.5,515.5C 279.858,516.803 278.191,518.136 276.5,519.5C 276.806,496.385 276.473,473.718 275.5,451.5C 276.833,449.5 278.5,447.833 280.5,446.5 Z"/></g>
<g><path style="opacity:0.979" fill="#c42820" d="M 197.5,446.5 C 201.105,448.472 204.105,451.139 206.5,454.5C 198.167,469.833 189.833,485.167 181.5,500.5C 178.418,498.628 175.751,496.295 173.5,493.5C 181.26,477.646 189.26,461.979 197.5,446.5 Z"/></g>
<g><path style="opacity:0.989" fill="#745380" d="M 275.5,451.5 C 276.473,473.718 276.806,496.385 276.5,519.5C 274.192,521.471 271.858,523.471 269.5,525.5C 269.667,503.164 269.5,480.831 269,458.5C 268.329,459.252 267.496,459.586 266.5,459.5C 269.474,456.862 272.474,454.195 275.5,451.5 Z"/></g>
<g><path style="opacity:0.967" fill="#ab2017" d="M 206.5,454.5 C 209.455,456.122 212.122,458.122 214.5,460.5C 206.769,476.296 198.769,491.963 190.5,507.5C 187.28,505.397 184.28,503.064 181.5,500.5C 189.833,485.167 198.167,469.833 206.5,454.5 Z"/></g>
<g><path style="opacity:0.984" fill="#68578a" d="M 269.5,525.5 C 267.14,527.853 264.473,529.853 261.5,531.5C 261.831,508.994 261.497,486.66 260.5,464.5C 262.46,462.844 264.46,461.177 266.5,459.5C 267.496,459.586 268.329,459.252 269,458.5C 269.5,480.831 269.667,503.164 269.5,525.5 Z"/></g>
<g><path style="opacity:0.983" fill="#7e1108" d="M 222.5,467.5 C 224.858,469.529 227.192,471.529 229.5,473.5C 226.743,480.427 223.409,487.094 219.5,493.5C 220.127,494.417 220.461,495.417 220.5,496.5C 219.5,496.833 218.833,497.5 218.5,498.5C 212.147,503.856 205.814,509.19 199.5,514.5C 198.833,514.5 198.5,514.167 198.5,513.5C 207.025,498.45 215.025,483.117 222.5,467.5 Z"/></g>
<g><path style="opacity:0.971" fill="#5a5c97" d="M 258.5,464.5 C 259.167,464.5 259.833,464.5 260.5,464.5C 261.497,486.66 261.831,508.994 261.5,531.5C 258.48,534.516 255.146,537.183 251.5,539.5C 251.5,516.833 251.5,494.167 251.5,471.5C 253.64,468.939 255.973,466.605 258.5,464.5 Z"/></g>
<g><path style="opacity:1" fill="#92170e" d="M 214.5,460.5 C 217.207,462.843 219.874,465.177 222.5,467.5C 215.025,483.117 207.025,498.45 198.5,513.5C 195.55,511.885 192.884,509.885 190.5,507.5C 198.769,491.963 206.769,476.296 214.5,460.5 Z"/></g>
<g><path style="opacity:0.972" fill="#4c61a3" d="M 251.5,471.5 C 251.5,494.167 251.5,516.833 251.5,539.5C 249.249,542.295 246.582,544.628 243.5,546.5C 243.5,523.5 243.5,500.5 243.5,477.5C 245.86,475.147 248.527,473.147 251.5,471.5 Z"/></g>
<g><path style="opacity:0.954" fill="#6a0b04" d="M 229.5,473.5 C 231.806,476.473 234.473,479.14 237.5,481.5C 236.162,483.696 234.495,485.696 232.5,487.5C 228.142,490.013 224.142,493.013 220.5,496.5C 220.461,495.417 220.127,494.417 219.5,493.5C 223.409,487.094 226.743,480.427 229.5,473.5 Z"/></g>
<g><path style="opacity:0.992" fill="#3e66af" d="M 243.5,477.5 C 243.5,500.5 243.5,523.5 243.5,546.5C 240.681,549.075 237.681,551.408 234.5,553.5C 233.172,531.667 233.172,509.833 234.5,488C 233.906,487.536 233.239,487.369 232.5,487.5C 234.495,485.696 236.162,483.696 237.5,481.5C 239.772,480.559 241.772,479.226 243.5,477.5 Z"/></g>
<g><path style="opacity:0.981" fill="#d3332f" d="M 344.5,484.5 C 345.498,509.661 345.831,534.995 345.5,560.5C 343.139,562.194 341.139,564.194 339.5,566.5C 339.5,541.5 339.5,516.5 339.5,491.5C 340.811,488.865 342.478,486.531 344.5,484.5 Z"/></g>
<g><path style="opacity:0.969" fill="#ca3536" d="M 339.5,491.5 C 339.5,516.5 339.5,541.5 339.5,566.5C 338.167,567.833 336.833,569.167 335.5,570.5C 334.51,546.575 334.177,522.575 334.5,498.5C 335.811,495.865 337.478,493.531 339.5,491.5 Z"/></g>
<g><path style="opacity:0.979" fill="#2f6cbd" d="M 232.5,487.5 C 233.239,487.369 233.906,487.536 234.5,488C 233.172,509.833 233.172,531.667 234.5,553.5C 230.485,557.513 226.152,561.179 221.5,564.5C 221.667,542.831 221.5,521.164 221,499.5C 220.329,498.748 219.496,498.414 218.5,498.5C 218.833,497.5 219.5,496.833 220.5,496.5C 224.142,493.013 228.142,490.013 232.5,487.5 Z"/></g>
<g><path style="opacity:0.968" fill="#c0393f" d="M 334.5,498.5 C 334.177,522.575 334.51,546.575 335.5,570.5C 332.859,572.804 330.192,575.138 327.5,577.5C 327.5,553.833 327.5,530.167 327.5,506.5C 329.117,503.216 331.45,500.549 334.5,498.5 Z"/></g>
<g><path style="opacity:0.982" fill="#1772cf" d="M 218.5,498.5 C 219.496,498.414 220.329,498.748 221,499.5C 221.5,521.164 221.667,542.831 221.5,564.5C 211.044,575.946 201.378,587.946 192.5,600.5C 192.5,574.5 192.5,548.5 192.5,522.5C 194.833,519.833 197.167,517.167 199.5,514.5C 205.814,509.19 212.147,503.856 218.5,498.5 Z"/></g>
<g><path style="opacity:0.981" fill="#b83c46" d="M 327.5,506.5 C 327.5,530.167 327.5,553.833 327.5,577.5C 326.71,578.401 325.71,579.068 324.5,579.5C 323.502,556.673 323.169,533.673 323.5,510.5C 324.5,508.833 325.833,507.5 327.5,506.5 Z"/></g>
<g><path style="opacity:0.97" fill="#b13e4c" d="M 323.5,510.5 C 323.169,533.673 323.502,556.673 324.5,579.5C 323.167,581.5 321.5,583.167 319.5,584.5C 319.5,561.167 319.5,537.833 319.5,514.5C 320.5,512.833 321.833,511.5 323.5,510.5 Z"/></g>
<g><path style="opacity:0.974" fill="#aa4152" d="M 319.5,514.5 C 319.5,537.833 319.5,561.167 319.5,584.5C 318.205,585.488 316.872,586.488 315.5,587.5C 315.5,564.5 315.5,541.5 315.5,518.5C 316.5,516.833 317.833,515.5 319.5,514.5 Z"/></g>
<g><path style="opacity:0.979" fill="#a34358" d="M 315.5,518.5 C 315.5,541.5 315.5,564.5 315.5,587.5C 314.055,589.063 312.389,590.396 310.5,591.5C 310.5,568.5 310.5,545.5 310.5,522.5C 312.142,521.197 313.809,519.864 315.5,518.5 Z"/></g>
<g><path style="opacity:0.955" fill="#106ccb" d="M 192.5,522.5 C 192.5,548.5 192.5,574.5 192.5,600.5C 186.279,612.613 181.446,625.28 178,638.5C 175.587,649.102 175.087,659.769 176.5,670.5C 175.209,670.737 174.209,670.404 173.5,669.5C 174.499,628.003 174.832,586.337 174.5,544.5C 179.372,536.29 185.372,528.956 192.5,522.5 Z"/></g>
<g><path style="opacity:0.905" fill="#000000" d="M 509.5,524.5 C 527.623,522.251 541.957,528.418 552.5,543C 552.241,544.261 551.574,545.261 550.5,546C 546.732,548.3 542.898,550.467 539,552.5C 531.764,543.306 522.264,539.806 510.5,542C 498.139,545.878 491.472,554.378 490.5,567.5C 492.762,587.266 503.762,596.099 523.5,594C 529.808,591.857 534.808,588.023 538.5,582.5C 543.082,585.041 547.582,587.707 552,590.5C 551.283,595.268 548.783,599.102 544.5,602C 523.818,615.537 503.984,614.371 485,598.5C 473.04,583.462 470.373,566.795 477,548.5C 484.343,535.642 495.176,527.642 509.5,524.5 Z"/></g>
<g><path style="opacity:0.911" fill="#000000" d="M 596.5,524.5 C 627.128,522.797 644.462,537.131 648.5,567.5C 646.599,591.502 633.932,606.002 610.5,611C 587.912,612.627 572.079,603.127 563,582.5C 556.41,552.658 567.577,533.325 596.5,524.5 Z M 597.5,541.5 C 619.442,539.612 630.275,549.612 630,571.5C 624.218,592.661 611.051,599.161 590.5,591C 577.582,579.912 575.082,566.745 583,551.5C 585.167,549.333 587.333,547.167 589.5,545C 592.374,544.058 595.04,542.891 597.5,541.5 Z"/></g>
<g><path style="opacity:0.904" fill="#000000" d="M 1041.5,524.5 C 1059.8,522.298 1074.13,528.632 1084.5,543.5C 1080.21,546.985 1075.54,549.985 1070.5,552.5C 1060.22,540.795 1047.89,538.295 1033.5,545C 1021.6,556.121 1019.43,568.954 1027,583.5C 1037.35,595.492 1049.51,597.659 1063.5,590C 1066.03,587.748 1068.2,585.248 1070,582.5C 1075.24,584.867 1080.07,587.867 1084.5,591.5C 1072.78,608.518 1056.78,614.685 1036.5,610C 1014.51,602.152 1003.84,586.652 1004.5,563.5C 1008.4,542.275 1020.73,529.275 1041.5,524.5 Z"/></g>
<g><path style="opacity:0.975" fill="#9b465f" d="M 310.5,522.5 C 310.5,545.5 310.5,568.5 310.5,591.5C 308.858,592.803 307.191,594.136 305.5,595.5C 305.822,572.758 305.489,550.092 304.5,527.5C 306.5,525.833 308.5,524.167 310.5,522.5 Z"/></g>
<g><path style="opacity:0.906" fill="#000000" d="M 660.5,526.5 C 666.868,526.17 673.202,526.504 679.5,527.5C 688.013,541.199 696.513,554.866 705,568.5C 713.302,554.701 721.802,541.034 730.5,527.5C 736.463,526.504 742.463,526.171 748.5,526.5C 748.5,554.167 748.5,581.833 748.5,609.5C 742.5,609.5 736.5,609.5 730.5,609.5C 730.667,592.83 730.5,576.163 730,559.5C 722.667,571.5 715.333,583.5 708,595.5C 707.196,596.804 706.029,597.471 704.5,597.5C 701.544,594.949 699.044,591.949 697,588.5C 691,578.5 685,568.5 679,558.5C 678.5,575.497 678.333,592.497 678.5,609.5C 672.5,609.5 666.5,609.5 660.5,609.5C 660.5,581.833 660.5,554.167 660.5,526.5 Z"/></g>
<g><path style="opacity:0.922" fill="#000000" d="M 766.5,526.5 C 772.537,526.171 778.537,526.504 784.5,527.5C 793.198,541.034 801.698,554.701 810,568.5C 818.5,554.833 827,541.167 835.5,527.5C 841.463,526.504 847.463,526.171 853.5,526.5C 853.5,554.167 853.5,581.833 853.5,609.5C 847.833,609.5 842.167,609.5 836.5,609.5C 836.667,592.497 836.5,575.497 836,558.5C 830,568.5 824,578.5 818,588.5C 815.956,591.949 813.456,594.949 810.5,597.5C 808.971,597.471 807.804,596.804 807,595.5C 799.667,583.5 792.333,571.5 785,559.5C 784.5,576.163 784.333,592.83 784.5,609.5C 778.5,609.5 772.5,609.5 766.5,609.5C 766.5,581.833 766.5,554.167 766.5,526.5 Z"/></g>
<g><path style="opacity:0.927" fill="#000000" d="M 872.5,526.5 C 887.833,526.5 903.167,526.5 918.5,526.5C 918.5,531.833 918.5,537.167 918.5,542.5C 908.833,542.5 899.167,542.5 889.5,542.5C 889.5,547.833 889.5,553.167 889.5,558.5C 898.5,558.5 907.5,558.5 916.5,558.5C 916.5,564.167 916.5,569.833 916.5,575.5C 907.5,575.5 898.5,575.5 889.5,575.5C 889.5,581.5 889.5,587.5 889.5,593.5C 899.167,593.5 908.833,593.5 918.5,593.5C 918.5,598.833 918.5,604.167 918.5,609.5C 903.167,609.5 887.833,609.5 872.5,609.5C 872.5,581.833 872.5,554.167 872.5,526.5 Z"/></g>
<g><path style="opacity:0.929" fill="#000000" d="M 934.5,526.5 C 948.892,526.07 963.226,526.57 977.5,528C 992.196,536.25 996.696,548.417 991,564.5C 988.167,570 984,574.167 978.5,577C 986.866,587.566 994.866,598.4 1002.5,609.5C 1002.17,609.833 1001.83,610.167 1001.5,610.5C 995.217,609.706 988.884,609.206 982.5,609C 975.551,599.049 968.217,589.383 960.5,580C 957.518,579.502 954.518,579.335 951.5,579.5C 951.5,589.5 951.5,599.5 951.5,609.5C 945.833,609.5 940.167,609.5 934.5,609.5C 934.5,581.833 934.5,554.167 934.5,526.5 Z M 951.5,541.5 C 957.593,541.139 963.593,541.639 969.5,543C 975.63,547.073 977.13,552.573 974,559.5C 972.048,561.894 969.548,563.394 966.5,564C 961.511,564.499 956.511,564.666 951.5,564.5C 951.5,556.833 951.5,549.167 951.5,541.5 Z"/></g>
<g><path style="opacity:0.909" fill="#000000" d="M 1097.5,526.5 C 1113.17,526.5 1128.83,526.5 1144.5,526.5C 1144.5,531.833 1144.5,537.167 1144.5,542.5C 1134.5,542.5 1124.5,542.5 1114.5,542.5C 1114.5,547.833 1114.5,553.167 1114.5,558.5C 1123.51,558.334 1132.51,558.5 1141.5,559C 1142.47,564.407 1142.81,569.907 1142.5,575.5C 1133.17,575.5 1123.83,575.5 1114.5,575.5C 1114.5,581.5 1114.5,587.5 1114.5,593.5C 1124.5,593.5 1134.5,593.5 1144.5,593.5C 1144.5,598.833 1144.5,604.167 1144.5,609.5C 1128.83,609.5 1113.17,609.5 1097.5,609.5C 1097.5,581.833 1097.5,554.167 1097.5,526.5 Z"/></g>
<g><path style="opacity:0.966" fill="#934966" d="M 304.5,527.5 C 305.489,550.092 305.822,572.758 305.5,595.5C 304.421,597.543 302.754,598.876 300.5,599.5C 300.5,576.5 300.5,553.5 300.5,530.5C 301.795,529.512 303.128,528.512 304.5,527.5 Z"/></g>
<g><path style="opacity:0.974" fill="#884c6f" d="M 300.5,530.5 C 300.5,553.5 300.5,576.5 300.5,599.5C 298.122,601.878 295.455,603.878 292.5,605.5C 292.5,582.833 292.5,560.167 292.5,537.5C 295.141,535.196 297.808,532.862 300.5,530.5 Z"/></g>
<g><path style="opacity:0.972" fill="#7f5077" d="M 292.5,537.5 C 292.5,560.167 292.5,582.833 292.5,605.5C 291.5,607.167 290.167,608.5 288.5,609.5C 288.5,586.5 288.5,563.5 288.5,540.5C 289.795,539.512 291.128,538.512 292.5,537.5 Z"/></g>
<g><path style="opacity:0.979" fill="#77537e" d="M 288.5,540.5 C 288.5,563.5 288.5,586.5 288.5,609.5C 286.45,611.547 284.117,613.214 281.5,614.5C 281.5,591.833 281.5,569.167 281.5,546.5C 283.234,543.8 285.568,541.8 288.5,540.5 Z"/></g>
<g><path style="opacity:0.977" fill="#6a578a" d="M 281.5,546.5 C 281.5,569.167 281.5,591.833 281.5,614.5C 279.249,617.295 276.582,619.628 273.5,621.5C 273.831,598.661 273.497,575.994 272.5,553.5C 275.19,550.815 278.19,548.482 281.5,546.5 Z"/></g>
<g><path style="opacity:0.959" fill="#0d67c6" d="M 174.5,544.5 C 174.832,586.337 174.499,628.003 173.5,669.5C 168.409,660.319 163.576,650.986 159,641.5C 146.562,606.215 151.728,573.882 174.5,544.5 Z"/></g>
<g><path style="opacity:0.992" fill="#5c5c96" d="M 272.5,553.5 C 273.497,575.994 273.831,598.661 273.5,621.5C 270.789,625.212 267.456,628.212 263.5,630.5C 264.817,607.373 264.817,584.373 263.5,561.5C 265.88,558.119 268.88,555.453 272.5,553.5 Z"/></g>
<g><path style="opacity:0.976" fill="#4d61a3" d="M 263.5,561.5 C 264.817,584.373 264.817,607.373 263.5,630.5C 261.058,633.729 258.392,636.729 255.5,639.5C 255.823,615.759 255.489,592.092 254.5,568.5C 257.233,565.761 260.233,563.427 263.5,561.5 Z"/></g>
<g><path style="opacity:0.968" fill="#4265ac" d="M 254.5,568.5 C 255.489,592.092 255.823,615.759 255.5,639.5C 254.299,641.909 252.633,643.909 250.5,645.5C 249.51,621.575 249.177,597.575 249.5,573.5C 250.833,571.5 252.5,569.833 254.5,568.5 Z"/></g>
<g><path style="opacity:0.973" fill="#3669b7" d="M 249.5,573.5 C 249.177,597.575 249.51,621.575 250.5,645.5C 247.975,649.896 244.975,653.896 241.5,657.5C 241.5,632.167 241.5,606.833 241.5,581.5C 243.833,578.5 246.5,575.833 249.5,573.5 Z"/></g>
<g><path style="opacity:0.967" fill="#2370c8" d="M 241.5,581.5 C 241.5,606.833 241.5,632.167 241.5,657.5C 236.62,665.927 232.287,674.593 228.5,683.5C 227.502,655.005 227.169,626.338 227.5,597.5C 231.226,591.409 235.893,586.075 241.5,581.5 Z"/></g>
<g><path style="opacity:0.955" fill="#1472d0" d="M 227.5,597.5 C 227.169,626.338 227.502,655.005 228.5,683.5C 222.669,700.146 220.002,717.146 220.5,734.5C 211.219,720.77 204.219,705.937 199.5,690C 199.833,689.667 200.167,689.333 200.5,689C 195.777,668.608 197.61,648.775 206,629.5C 211.456,617.56 218.622,606.893 227.5,597.5 Z"/></g>
</svg>
